<?xml version="1.0" standalone="no"?>
<!DOCTYPE svg PUBLIC "-//W3C//DTD SVG 20010904//EN"
 "http://www.w3.org/TR/2001/REC-SVG-20010904/DTD/svg10.dtd">
<svg version="1.0" xmlns="http://www.w3.org/2000/svg"
 width="512.000000pt" height="512.000000pt" viewBox="0 0 512.000000 512.000000"
 preserveAspectRatio="xMidYMid meet">
<metadata>
Created by potrace 1.11, written by Peter Selinger 2001-2013
</metadata>
<g transform="translate(0.000000,512.000000) scale(0.100000,-0.100000)"
fill="#000000" stroke="none">
<path d="M0 2560 l0 -2560 2560 0 2560 0 0 2560 0 2560 -2560 0 -2560 0 0
-2560z m1940 1624 c0 -9 -16 -57 -36 -106 -85 -213 -120 -424 -111 -681 10
-305 87 -563 247 -822 159 -259 415 -490 687 -621 234 -113 468 -166 733 -165
226 0 421 36 621 116 103 42 119 43 119 12 0 -28 -82 -174 -159 -281 -67 -96
-219 -257 -316 -336 -453 -370 -1072 -482 -1634 -295 -432 144 -801 468 -1002
880 -197 405 -227 872 -84 1304 133 397 411 734 785 951 106 61 150 74 150 44z
m733 -818 c111 -94 227 -146 327 -146 100 0 271 80 349 164 27 29 61 35 61 11
0 -9 -24 -45 -53 -80 -182 -220 -182 -410 0 -630 29 -35 53 -71 53 -80 0 -20
-34 -19 -51 1 -28 34 -131 106 -192 135 -157 73 -313 41 -481 -97 -109 -90
-131 -65 -40 44 30 37 72 101 92 141 35 71 37 80 37 170 0 87 -3 102 -32 164
-31 64 -103 168 -137 196 -21 17 -21 51 0 51 9 0 39 -20 67 -44z"/>
</g>
</svg>
