<?xml version="1.0" standalone="no"?>
<!DOCTYPE svg PUBLIC "-//W3C//DTD SVG 20010904//EN"
 "http://www.w3.org/TR/2001/REC-SVG-20010904/DTD/svg10.dtd">
<svg version="1.0" xmlns="http://www.w3.org/2000/svg"
 width="512.000000pt" height="512.000000pt" viewBox="0 0 512.000000 512.000000"
 preserveAspectRatio="xMidYMid meet">
<metadata>
Created by potrace 1.11, written by Peter Selinger 2001-2013
</metadata>
<g transform="translate(0.000000,512.000000) scale(0.100000,-0.100000)"
fill="#000000" stroke="none">
<path d="M0 2560 l0 -2560 2560 0 2560 0 0 2560 0 2560 -2560 0 -2560 0 0
-2560z m1940 1621 c0 -10 -11 -43 -24 -74 -64 -144 -111 -341 -125 -528 -50
-659 310 -1300 899 -1603 239 -123 435 -174 707 -183 257 -9 467 26 681 111
112 45 126 46 119 6 -10 -45 -102 -203 -183 -309 -271 -359 -675 -599 -1119
-666 -129 -19 -381 -19 -510 0 -362 55 -670 208 -938 465 -281 269 -454 604
-512 985 -19 129 -19 381 0 510 80 527 396 984 870 1254 95 54 135 64 135 32z
m748 -827 c82 -68 167 -111 250 -126 119 -22 246 21 374 126 37 31 74 56 83
56 20 0 19 -34 -1 -51 -27 -22 -100 -122 -124 -169 -87 -170 -60 -328 87 -505
89 -108 64 -130 -44 -39 -36 31 -100 73 -142 93 -71 34 -82 36 -171 36 -86 0
-101 -3 -163 -32 -64 -31 -168 -103 -196 -137 -19 -22 -51 -21 -51 3 0 10 7
25 16 32 34 28 106 132 137 196 29 62 32 77 32 163 0 89 -2 100 -36 171 -20
42 -62 106 -93 142 -92 109 -68 133 42 41z"/>
</g>
</svg>
